<svg width="36" height="35" viewBox="0 0 36 35" fill="none" xmlns="http://www.w3.org/2000/svg">
<path fill-rule="evenodd" clip-rule="evenodd" d="M4.12466 1.11605C4.50743 0.73385 4.96706 0.437364 5.47309 0.246237C5.97911 0.05511 6.51998 -0.0262928 7.05985 0.007423C7.59971 0.0411388 8.12625 0.189203 8.60456 0.441804C9.08288 0.694405 9.50205 1.04577 9.83429 1.47263L13.761 6.51723C14.4808 7.44259 14.7345 8.64796 14.4501 9.78551L13.2535 14.5764C13.1916 14.8245 13.195 15.0844 13.2632 15.3309C13.3314 15.5773 13.4622 15.802 13.6429 15.983L19.0178 21.3579C19.1991 21.5389 19.4241 21.67 19.6709 21.7382C19.9178 21.8064 20.1782 21.8096 20.4267 21.7473L25.2153 20.5507C25.7767 20.4103 26.3626 20.3994 26.9288 20.5188C27.495 20.6382 28.0267 20.8847 28.4836 21.2398L33.5282 25.1643C35.3417 26.5753 35.508 29.2552 33.8848 30.8762L31.6228 33.1381C30.004 34.757 27.5845 35.4679 25.3291 34.6738C19.5564 32.6427 14.3151 29.3379 9.99399 25.0046C5.66098 20.6842 2.35622 15.4436 0.324795 9.67175C-0.467116 7.41853 0.243854 4.99685 1.86268 3.37803L4.12466 1.11605Z" fill="#CD4158"/>
</svg>
