<svg width="36" height="35" fill="none" xmlns="http://www.w3.org/2000/svg"><path fill-rule="evenodd" clip-rule="evenodd" d="M4.125 1.116a3.817 3.817 0 015.71.357l3.926 5.044c.72.926.974 2.131.69 3.269l-1.197 4.79a1.483 1.483 0 00.389 1.407l5.375 5.375a1.484 1.484 0 001.409.39l4.788-1.197a3.816 3.816 0 013.269.689l5.044 3.924a3.816 3.816 0 01.357 5.712l-2.262 2.262c-1.619 1.619-4.039 2.33-6.294 1.536a40.763 40.763 0 01-15.335-9.67A40.763 40.763 0 01.324 9.673C-.467 7.42.244 4.998 1.863 3.379l2.262-2.262z" fill="#CD4158"/></svg>